<?xml version="1.0" standalone="no"?>
<!DOCTYPE svg PUBLIC "-//W3C//DTD SVG 20010904//EN"
 "http://www.w3.org/TR/2001/REC-SVG-20010904/DTD/svg10.dtd">
<svg version="1.0" xmlns="http://www.w3.org/2000/svg"
 width="1898.000000pt" height="838.000000pt" viewBox="0 0 1898.000000 838.000000"
 preserveAspectRatio="xMidYMid meet">

<g transform="translate(0.000000,838.000000) scale(0.100000,-0.100000)"
fill="#000000" stroke="none">
<path d="M0 4190 l0 -4190 9490 0 9490 0 0 4190 0 4190 -9490 0 -9490 0 0
-4190z m2433 3906 c54 -23 80 -59 85 -119 8 -103 -37 -149 -157 -157 l-76 -5
-3 -72 -3 -73 -39 0 -40 0 0 220 0 220 100 0 c63 0 113 -5 133 -14z m1267 -62
l0 -75 26 20 c33 26 109 28 143 5 39 -28 51 -73 51 -199 l0 -115 -45 0 -45 0
0 111 c0 129 -7 149 -55 149 -58 0 -65 -17 -65 -146 l0 -114 -45 0 -45 0 0
220 0 220 40 0 40 0 0 -76z m410 56 c0 -15 -7 -20 -25 -20 -24 0 -25 -3 -25
-60 0 -53 -2 -60 -20 -60 -18 0 -20 7 -20 59 0 54 -2 60 -22 63 -13 2 -24 11
-26 21 -3 15 5 17 67 17 64 0 71 -2 71 -20z m89 -27 c8 -24 18 -43 21 -43 3 0
13 19 21 43 13 33 21 43 42 45 l27 3 0 -80 c0 -80 0 -81 -25 -81 -20 0 -25 5
-26 28 l-1 27 -11 -27 c-6 -16 -18 -28 -27 -28 -9 0 -21 12 -27 28 l-11 27 -1
-27 c-1 -23 -6 -28 -26 -28 -25 0 -25 1 -25 81 l0 80 27 -3 c21 -2 29 -12 42
-45z m-1394 -83 c40 -25 65 -74 65 -129 l0 -41 -110 0 c-103 0 -110 -1 -110
-20 0 -53 89 -81 129 -41 15 15 28 19 55 14 20 -3 36 -9 36 -14 0 -19 -54 -69
-87 -79 -46 -16 -118 -7 -151 17 -53 39 -67 70 -67 141 0 75 21 119 71 153 40
26 126 26 169 -1z m352 0 c42 -25 53 -67 53 -202 l0 -108 -45 0 c-35 0 -45 4
-45 17 0 15 -2 15 -19 -1 -28 -26 -91 -31 -129 -12 -41 21 -54 47 -50 98 4 54
35 77 125 92 52 8 69 15 71 29 9 46 -61 64 -99 26 -16 -16 -28 -20 -55 -14
-38 7 -39 8 -23 36 30 57 151 79 216 39z m351 0 c31 -19 66 -76 56 -92 -3 -5
-21 -8 -39 -8 -24 0 -38 6 -45 20 -26 48 -90 48 -115 -1 -22 -42 -19 -111 6
-143 31 -40 95 -32 111 15 2 6 21 9 46 7 l42 -3 -17 -34 c-28 -55 -65 -76
-133 -76 -71 0 -104 21 -138 86 -43 81 -12 197 61 233 46 22 124 21 165 -4z
m13412 -5 c0 -8 -4 -15 -9 -15 -13 0 -22 16 -14 24 11 11 23 6 23 -9z m-1425
-72 c16 -43 30 -84 33 -90 8 -24 -15 -13 -26 12 -9 20 -19 25 -47 25 -28 0
-38 -5 -47 -25 -11 -25 -34 -36 -26 -12 49 135 63 167 73 167 7 0 25 -35 40
-77z m85 47 c0 -27 2 -30 19 -20 28 14 38 13 61 -10 24 -24 26 -77 3 -102 -18
-21 -53 -24 -71 -6 -9 9 -12 9 -12 0 0 -7 -4 -12 -10 -12 -6 0 -10 37 -10 90
0 53 4 90 10 90 6 0 10 -14 10 -30z m1028 18 c16 -16 15 -73 -1 -86 -6 -6 -28
-12 -47 -14 -31 -3 -35 -6 -38 -35 -2 -18 -7 -33 -13 -33 -5 0 -9 41 -9 90 l0
90 48 0 c26 0 53 -5 60 -12z m1382 -8 c12 -12 18 -26 14 -32 -5 -8 -12 -4 -22
10 -19 29 -77 31 -92 3 -15 -29 -12 -87 6 -105 21 -22 61 -20 81 3 9 11 21 17
26 14 4 -3 -2 -16 -14 -29 -29 -31 -75 -31 -106 -2 -31 29 -33 108 -3 138 27
27 83 27 110 0z m-1950 -1 c0 -7 8 -18 18 -25 16 -13 16 -13 0 -14 -15 0 -18
-9 -18 -50 0 -38 4 -50 15 -50 8 0 15 -5 15 -11 0 -6 -10 -9 -22 -7 -20 3 -23
10 -26 58 -2 30 -9 58 -15 63 -9 7 -9 10 1 14 6 2 12 11 12 19 0 8 5 14 10 14
6 0 10 -5 10 -11z m1230 0 c0 -7 8 -18 18 -25 16 -13 16 -13 0 -14 -15 0 -18
-9 -18 -50 0 -38 4 -50 15 -50 8 0 15 -5 15 -11 0 -6 -10 -9 -22 -7 -20 3 -23
10 -26 58 -2 30 -9 58 -15 63 -9 7 -9 10 1 14 6 2 12 11 12 19 0 8 5 14 10 14
6 0 10 -5 10 -11z m1100 0 c0 -7 8 -18 18 -25 16 -13 16 -13 0 -14 -15 0 -18
-9 -18 -50 0 -38 4 -50 15 -50 8 0 15 -5 15 -11 0 -6 -10 -9 -22 -7 -20 3 -23
10 -26 58 -2 30 -9 58 -15 63 -9 7 -9 10 1 14 6 2 12 11 12 19 0 8 5 14 10 14
6 0 10 -5 10 -11z m370 0 c0 -7 8 -18 18 -25 16 -13 16 -13 0 -14 -15 0 -18
-9 -18 -50 0 -38 4 -50 15 -50 8 0 15 -5 15 -11 0 -6 -10 -9 -22 -7 -20 3 -23
10 -26 58 -2 30 -9 58 -15 63 -9 7 -9 10 1 14 6 2 12 11 12 19 0 8 5 14 10 14
6 0 10 -5 10 -11z m-2930 -39 c24 -24 26 -77 3 -102 -20 -22 -61 -23 -85 -1
-39 35 -10 123 42 123 11 0 29 -9 40 -20z m87 -91 c6 -6 19 -9 29 -7 16 3 20
14 22 61 4 81 22 71 22 -13 0 -40 -4 -70 -10 -70 -5 0 -10 5 -10 11 0 8 -4 8
-14 -1 -8 -6 -25 -10 -38 -8 -21 3 -23 8 -24 73 -2 66 -1 67 5 18 4 -29 12
-58 18 -64z m798 101 c8 13 25 13 25 1 0 -5 -9 -13 -20 -16 -17 -5 -20 -15
-20 -61 0 -30 -4 -54 -10 -54 -6 0 -10 30 -10 71 0 60 2 70 14 60 10 -8 16 -9
21 -1z m143 -6 c27 -18 31 -84 6 -108 -23 -24 -70 -20 -88 6 -22 31 -20 60 5
92 23 30 45 33 77 10z m82 -73 c0 -58 -4 -82 -15 -91 -19 -16 -34 -5 -17 12 7
7 12 43 12 91 0 49 4 76 10 72 6 -3 10 -41 10 -84z m123 77 c9 -7 19 -25 23
-40 6 -28 6 -28 -45 -28 -52 0 -58 -4 -42 -29 6 -10 20 -12 45 -8 36 6 50 -6
20 -17 -51 -19 -94 9 -94 61 0 56 53 91 93 61z m152 -4 c21 -21 13 -29 -14
-12 -39 24 -70 -14 -57 -68 7 -26 43 -33 64 -12 17 17 28 2 12 -17 -16 -20
-59 -19 -82 2 -24 22 -24 77 2 103 24 24 53 26 75 4z m213 4 c19 -19 14 -30
-7 -17 -20 13 -51 6 -51 -11 0 -5 16 -16 35 -24 40 -17 53 -39 34 -62 -18 -22
-83 -15 -88 11 -3 16 -1 17 12 6 19 -15 59 -11 64 6 3 7 -8 15 -24 19 -37 9
-53 22 -53 45 0 32 54 51 78 27z m732 -10 c57 -61 -20 -157 -82 -101 -27 24
-24 87 4 107 31 22 54 20 78 -6z m90 12 c42 27 70 -4 70 -76 0 -72 -18 -70
-22 3 -2 48 -6 58 -22 61 -28 6 -46 -25 -46 -75 0 -24 -4 -43 -10 -43 -6 0
-10 28 -10 63 0 62 7 87 20 68 3 -6 11 -6 20 -1z m284 -6 c11 -10 16 -34 16
-68 l0 -53 -44 -1 c-49 -2 -71 15 -61 48 4 14 18 22 46 26 24 4 39 12 39 21 0
20 -30 28 -52 14 -27 -16 -38 -3 -14 15 26 18 51 18 70 -2z m147 -4 c18 -14
20 -19 9 -20 -9 0 -21 5 -27 11 -31 31 -75 -29 -53 -71 12 -22 49 -27 68 -8 6
6 14 9 17 6 12 -11 -27 -38 -54 -38 -37 0 -55 23 -55 67 0 25 7 41 23 54 29
24 43 24 72 -1z m-3001 -1231 c853 -78 1620 -602 2004 -1367 484 -964 296
-2123 -468 -2888 -417 -416 -955 -670 -1536 -723 -945 -88 -1866 375 -2363
1185 -603 984 -451 2251 367 3070 362 361 798 593 1297 689 228 44 470 55 699
34z m-14790 -524 l0 -175 180 0 180 0 0 175 0 175 95 0 95 0 0 -435 0 -435
-95 0 -95 0 0 173 0 174 -172 6 c-95 3 -176 3 -180 1 -4 -3 -8 -84 -8 -180 l0
-174 -100 0 -100 0 0 435 0 435 100 0 100 0 0 -175z m1620 -260 l0 -435 -100
0 -100 0 0 435 0 435 100 0 100 0 0 -435z m-495 196 c108 -48 166 -137 173
-268 l5 -83 -217 0 -216 0 0 -29 c0 -104 155 -158 233 -80 27 27 33 29 113 29
84 0 85 0 78 -22 -22 -73 -64 -118 -144 -156 -45 -21 -70 -26 -140 -26 -204
-2 -319 104 -328 304 -9 181 69 305 218 347 63 18 165 11 225 -16z m-1107
-1688 c17 -71 45 -194 64 -275 18 -82 35 -148 38 -148 3 0 37 123 76 273 l71
272 101 3 101 3 9 -33 c5 -18 37 -144 73 -280 35 -136 65 -245 67 -243 2 2 30
119 63 262 33 142 62 266 65 276 5 15 20 17 126 17 100 0 119 -2 115 -14 -8
-21 -247 -844 -247 -851 0 -3 -48 -5 -108 -5 l-107 0 -75 255 c-41 140 -78
255 -81 255 -3 0 -39 -114 -80 -252 l-75 -253 -106 -3 -106 -3 -20 68 c-11 37
-66 226 -122 418 -56 193 -103 358 -106 368 -5 15 5 17 114 17 l120 0 30 -127z
m1922 -25 l0 -152 28 31 c43 46 87 65 154 65 184 0 296 -181 258 -416 -14 -86
-48 -154 -100 -198 -99 -85 -256 -76 -324 20 l-26 37 0 -53 0 -52 -105 0 -105
0 0 435 0 435 110 0 110 0 0 -152z m1322 124 c125 -50 216 -173 239 -321 31
-208 -49 -393 -205 -473 -79 -40 -131 -48 -343 -48 l-203 0 0 436 0 435 228
-3 c209 -3 232 -5 284 -26z m2698 -407 l0 -435 -105 0 -105 0 0 435 0 435 105
0 105 0 0 -435z m-4582 220 c135 -18 230 -137 240 -297 l5 -78 -217 0 -216 0
0 -24 c0 -74 55 -120 134 -113 40 4 55 11 78 35 l27 32 96 -7 c108 -7 107 -6
60 -89 -47 -81 -143 -124 -281 -124 -147 0 -239 51 -293 163 -86 176 -25 396
132 478 38 20 135 39 172 33 11 -1 40 -5 63 -9z m2673 -11 c117 -37 199 -174
199 -331 l0 -33 -221 0 -222 0 6 -37 c17 -99 148 -137 217 -62 l26 29 92 -6
c102 -8 105 -10 73 -72 -24 -46 -63 -83 -121 -113 -40 -21 -58 -24 -165 -24
-111 0 -124 2 -170 27 -64 34 -108 80 -137 143 -20 43 -23 66 -23 160 0 91 4
118 21 156 72 154 243 220 425 163z m1400 0 c117 -37 199 -174 199 -331 l0
-33 -221 0 -222 0 6 -37 c17 -99 148 -137 217 -62 l26 29 92 -6 c102 -8 105
-10 73 -72 -24 -46 -63 -83 -121 -113 -40 -21 -58 -24 -165 -24 -111 0 -124 2
-170 27 -64 34 -108 80 -137 143 -20 43 -23 66 -23 160 0 91 4 118 21 156 72
154 243 220 425 163z m1086 -6 c66 -24 128 -84 161 -156 24 -50 27 -70 27
-157 0 -87 -3 -107 -27 -157 -56 -121 -154 -178 -303 -178 -149 0 -247 57
-303 178 -24 50 -27 70 -27 157 0 87 4 107 26 156 48 101 130 163 237 178 73
10 144 3 209 -21z m811 -5 c112 -53 171 -211 142 -387 -26 -162 -123 -256
-264 -256 -60 0 -109 21 -146 62 l-30 32 0 -167 0 -167 -110 0 -110 0 0 455 0
455 105 0 105 0 0 -57 0 -57 25 34 c65 88 168 108 283 53z m630 22 c135 -18
230 -137 240 -297 l5 -78 -217 0 -216 0 0 -24 c0 -74 55 -120 134 -113 40 4
55 11 78 35 l27 32 96 -7 c108 -7 107 -6 60 -89 -47 -81 -143 -124 -281 -124
-147 0 -239 51 -293 163 -86 176 -25 396 132 478 38 20 135 39 172 33 11 -1
40 -5 63 -9z m755 5 c15 0 17 -11 17 -92 l0 -93 -75 0 c-68 0 -77 -2 -102 -28
l-28 -27 -3 -210 -3 -210 -110 0 -109 0 0 330 0 330 105 0 105 0 0 -57 0 -58
16 32 c9 17 24 39 34 48 25 23 91 46 115 40 11 -3 28 -5 38 -5z m-4224 -32 c5
-18 31 -114 57 -213 26 -99 50 -183 54 -188 4 -4 30 84 60 195 29 112 57 211
62 221 7 15 24 17 119 17 85 0 110 -3 107 -12 -3 -7 -54 -156 -114 -331 l-109
-318 -124 3 -124 3 -108 315 c-60 173 -109 321 -109 328 0 9 28 12 109 12
l109 0 11 -32z m-4642 -1400 c18 -17 23 -32 23 -69 0 -61 -31 -89 -96 -89
l-44 0 0 90 0 90 47 0 c34 0 53 -6 70 -22z m503 -68 c0 -53 -4 -90 -10 -90 -6
0 -10 37 -10 90 0 53 4 90 10 90 6 0 10 -37 10 -90z m738 62 c2 -13 -3 -31
-12 -41 -14 -16 -14 -19 0 -40 15 -21 17 -21 31 -4 13 17 14 16 9 -13 -3 -17
-1 -35 4 -40 5 -5 -13 -10 -45 -11 -49 -2 -57 0 -71 22 -15 23 -15 27 0 50 10
16 14 34 10 50 -10 40 2 57 38 53 26 -2 34 -8 36 -26z m452 -62 c0 -53 -4 -90
-10 -90 -6 0 -10 37 -10 90 0 53 4 90 10 90 6 0 10 -37 10 -90z m60 0 c0 -53
-4 -90 -10 -90 -6 0 -10 37 -10 90 0 53 4 90 10 90 6 0 10 -37 10 -90z m1030
2 l0 -89 -45 -1 c-37 -2 -47 2 -61 23 -36 56 15 139 67 107 17 -11 19 -9 19
18 0 16 5 30 10 30 6 0 10 -36 10 -88z m699 62 c66 -84 -30 -200 -110 -135
-31 25 -34 108 -5 140 29 32 88 29 115 -5z m901 -64 c0 -53 -4 -90 -10 -90 -6
0 -10 37 -10 90 0 53 4 90 10 90 6 0 10 -37 10 -90z m-1920 65 c0 -8 7 -15 15
-15 8 0 15 -4 15 -10 0 -5 -7 -10 -15 -10 -23 0 -21 -86 2 -99 10 -5 14 -13
10 -17 -19 -19 -42 14 -45 65 -2 28 -7 51 -12 51 -4 0 -3 11 3 25 13 28 27 33
27 10z m680 0 c0 -8 7 -15 15 -15 8 0 15 -4 15 -9 0 -5 -7 -11 -15 -15 -10 -3
-15 -19 -15 -46 0 -27 5 -43 15 -46 19 -8 19 -24 0 -24 -21 0 -35 32 -35 79 0
23 -4 41 -9 41 -5 0 -4 11 2 25 13 28 27 33 27 10z m940 4 c0 -7 8 -18 18 -25
16 -13 16 -13 0 -14 -15 0 -18 -9 -18 -50 0 -38 4 -50 15 -50 8 0 15 -5 15
-11 0 -6 -10 -9 -22 -7 -20 3 -23 10 -26 58 -2 30 -9 58 -15 63 -9 7 -9 10 1
14 6 2 12 11 12 19 0 8 5 14 10 14 6 0 10 -5 10 -11z m-3932 -35 c12 -8 22
-26 22 -40 0 -22 -4 -24 -50 -24 -48 0 -50 -1 -40 -20 11 -21 54 -28 65 -10 4
6 11 8 16 4 18 -11 -13 -34 -46 -34 -40 0 -59 21 -59 67 0 25 7 41 23 54 28
23 40 24 69 3z m81 -37 c8 -26 18 -47 21 -47 4 0 13 20 20 45 12 43 26 63 36
53 8 -9 -44 -133 -56 -133 -7 0 -21 23 -31 50 -31 81 -32 88 -18 83 7 -2 20
-26 28 -51z m194 41 c9 -7 19 -25 23 -40 6 -28 6 -28 -45 -28 -52 0 -58 -4
-42 -29 6 -10 20 -12 45 -8 36 6 50 -6 20 -17 -51 -19 -94 9 -94 61 0 56 53
91 93 61z m208 -7 c30 -24 32 -87 4 -107 -25 -19 -70 -18 -86 2 -22 26 -16 84
10 105 13 11 29 19 36 19 7 0 23 -8 36 -19z m79 9 c0 -7 6 -7 19 0 28 14 38
13 61 -10 24 -24 26 -67 4 -98 -17 -24 -53 -29 -72 -10 -9 9 -12 4 -12 -25 0
-20 -4 -37 -10 -37 -6 0 -10 38 -10 95 0 57 4 95 10 95 6 0 10 -5 10 -10z
m224 -6 c9 -8 16 -19 16 -24 0 -5 3 -15 6 -24 5 -13 -3 -16 -46 -16 -44 0 -51
-3 -48 -17 3 -14 13 -18 46 -17 34 1 40 -2 31 -13 -16 -18 -59 -16 -81 4 -24
22 -24 77 2 103 24 24 53 26 74 4z m91 6 c8 13 25 13 25 1 0 -5 -9 -13 -20
-16 -17 -5 -20 -15 -20 -61 0 -30 -4 -54 -10 -54 -6 0 -10 30 -10 71 0 60 2
70 14 60 10 -8 16 -9 21 -1z m446 -10 c18 -14 20 -19 9 -20 -9 0 -21 5 -27 11
-31 31 -75 -29 -53 -71 12 -22 49 -27 68 -8 6 6 14 9 17 6 12 -11 -27 -38 -54
-38 -37 0 -55 23 -55 67 0 25 7 41 23 54 29 24 43 24 72 -1z m140 1 c30 -24
32 -87 4 -107 -25 -19 -70 -18 -86 2 -22 26 -16 84 10 105 13 11 29 19 36 19
7 0 23 -8 36 -19z m269 -1 c11 -11 20 -29 20 -40 0 -17 -7 -20 -50 -20 -27 0
-50 -4 -50 -8 0 -26 61 -44 75 -22 4 6 11 8 16 4 19 -11 -13 -34 -47 -34 -59
0 -83 63 -43 114 24 31 52 33 79 6z m131 10 c13 -8 19 -7 19 0 0 6 5 8 10 5 6
-3 10 -39 10 -80 0 -87 -13 -108 -68 -103 -19 2 -38 9 -40 17 -3 10 0 12 12 8
9 -4 22 -10 30 -13 16 -6 46 21 46 41 0 12 -5 12 -25 3 -19 -9 -29 -8 -50 6
-34 22 -36 87 -3 110 26 19 33 19 59 6z m162 -2 c9 -7 19 -25 23 -40 6 -28 6
-28 -45 -28 -52 0 -58 -4 -42 -29 6 -10 20 -12 45 -8 36 6 50 -6 20 -17 -51
-19 -94 9 -94 61 0 56 53 91 93 61z m201 6 c9 -3 16 -12 16 -20 0 -11 -4 -12
-19 -3 -21 14 -55 5 -49 -13 2 -6 20 -17 39 -23 56 -19 48 -75 -11 -75 -30 0
-58 24 -40 35 5 3 10 1 10 -4 0 -6 14 -11 30 -11 43 0 38 24 -10 43 -42 16
-50 36 -24 61 16 17 33 20 58 10z m171 -91 c6 -25 33 -31 53 -11 7 7 12 34 12
60 0 26 5 48 10 48 6 0 10 -30 10 -70 0 -40 -4 -70 -10 -70 -5 0 -10 5 -10 12
0 9 -3 9 -12 0 -18 -18 -56 -14 -68 7 -12 23 -14 104 -2 115 4 4 8 -9 10 -31
1 -21 5 -48 7 -60z m368 85 c9 -7 19 -25 23 -40 6 -28 6 -28 -45 -28 -52 0
-58 -4 -42 -29 6 -10 20 -12 45 -8 36 6 50 -6 20 -17 -51 -19 -94 9 -94 61 0
56 53 91 93 61z m77 0 c0 -9 3 -9 12 0 19 19 45 14 62 -10 18 -25 22 -118 6
-118 -5 0 -10 22 -10 49 0 95 -62 97 -68 2 -5 -76 -22 -62 -22 19 0 40 4 70
10 70 6 0 10 -5 10 -12z m588 3 c17 10 24 10 46 -4 21 -14 26 -25 26 -57 0
-51 -23 -74 -66 -67 -31 5 -33 4 -37 -26 -2 -18 -4 13 -5 68 -1 58 2 94 7 87
7 -11 12 -12 29 -1z m202 -11 c11 -11 20 -29 20 -40 0 -17 -7 -20 -50 -20 -27
0 -50 -4 -50 -8 0 -26 61 -44 75 -22 4 6 11 8 16 4 19 -11 -13 -34 -47 -34
-59 0 -83 63 -43 114 24 31 52 33 79 6z m148 7 c14 -10 17 -127 2 -127 -5 0
-10 26 -12 57 -2 47 -6 58 -22 61 -27 6 -40 -13 -47 -71 l-6 -52 -2 70 -1 71
38 -1 c20 0 43 -4 50 -8z m303 -6 c30 -24 32 -87 4 -107 -25 -19 -70 -18 -86
2 -22 26 -16 84 10 105 13 11 29 19 36 19 7 0 23 -8 36 -19z m280 0 c30 -24
32 -87 4 -107 -25 -19 -70 -18 -86 2 -22 26 -16 84 10 105 13 11 29 19 36 19
7 0 23 -8 36 -19z m85 -44 l17 -52 19 58 c11 31 24 57 30 57 11 0 10 -2 -16
-82 -11 -32 -25 -58 -31 -58 -12 0 -55 103 -55 129 0 26 19 -2 36 -52z m194
43 c11 -11 20 -29 20 -40 0 -17 -7 -20 -50 -20 -27 0 -50 -4 -50 -8 0 -26 61
-44 75 -22 4 6 11 8 16 4 19 -11 -13 -34 -47 -34 -59 0 -83 63 -43 114 24 31
52 33 79 6z m-1558 -105 c0 -5 -5 -11 -11 -13 -6 -2 -11 4 -11 13 0 9 5 15 11
13 6 -2 11 -8 11 -13z m1638 0 c0 -8 -4 -15 -9 -15 -13 0 -22 16 -14 24 11 11
23 6 23 -9z m-4670 -810 c0 -33 2 -35 35 -35 33 0 35 2 35 35 0 25 4 35 15 35
13 0 15 -12 13 -72 -2 -46 -7 -73 -15 -76 -9 -2 -13 7 -13 27 0 29 -3 31 -35
31 -32 0 -35 -2 -35 -30 0 -20 -5 -30 -15 -30 -12 0 -15 15 -15 75 0 60 3 75
15 75 10 0 15 -11 15 -35z m148 23 c-6 -18 -28 -21 -28 -4 0 9 7 16 16 16 9 0
14 -5 12 -12z m1453 -7 c16 -13 23 -29 23 -54 0 -50 -27 -77 -76 -77 l-38 0 0
75 0 75 34 0 c19 0 44 -8 57 -19z m459 -56 c0 -43 -4 -75 -10 -75 -6 0 -10 32
-10 75 0 43 4 75 10 75 6 0 10 -32 10 -75z m360 0 l0 -75 -38 0 c-46 0 -62 14
-62 56 0 38 21 58 55 52 21 -4 25 -1 25 18 0 13 5 24 10 24 6 0 10 -32 10 -75z
m192 53 c14 -14 17 -23 10 -26 -7 -2 -19 4 -28 12 -43 43 -94 -17 -64 -75 13
-23 56 -25 68 -3 5 9 14 15 21 13 8 -3 7 -11 -4 -27 -22 -30 -78 -31 -99 0
-53 76 32 170 96 106z m67 -30 c9 -26 19 -49 22 -53 4 -3 15 18 25 46 11 29
25 54 31 57 8 2 3 -24 -14 -72 -15 -42 -32 -76 -39 -76 -11 0 -36 54 -59 129
-14 46 18 16 34 -31z m-2529 -12 c0 -38 -12 -86 -21 -86 -5 0 -9 25 -9 55 0
42 3 55 15 55 9 0 15 -9 15 -24z m80 15 c0 -5 -9 -11 -20 -14 -16 -4 -20 -14
-20 -46 0 -23 -4 -41 -10 -41 -5 0 -10 25 -10 55 0 54 0 55 30 55 17 0 30 -4
30 -9z m100 -10 c20 -39 13 -51 -31 -51 -26 0 -38 -4 -33 -11 4 -6 20 -8 40
-4 27 5 33 3 28 -9 -3 -8 -14 -18 -25 -21 -51 -16 -90 34 -68 87 9 23 18 28
45 28 23 0 37 -6 44 -19z m228 -38 c2 -31 -1 -53 -7 -53 -5 0 -11 19 -13 43
-2 29 -8 42 -18 42 -10 0 -16 -13 -18 -42 -2 -29 -8 -43 -18 -43 -10 0 -14 12
-14 45 0 33 -4 45 -15 45 -11 0 -15 -12 -15 -45 0 -33 -4 -45 -15 -45 -12 0
-15 13 -15 55 l0 55 73 -2 72 -3 3 -52z m120 20 c3 -32 2 -33 -33 -33 -23 0
-34 -4 -30 -11 4 -6 19 -7 36 -4 36 8 39 -11 4 -27 -36 -16 -75 12 -75 55 0
43 17 59 60 55 31 -3 35 -6 38 -35z m1061 6 c13 -24 13 -29 -2 -53 -33 -49
-97 -28 -97 33 0 53 72 67 99 20z m46 1 c4 -16 10 -30 15 -30 4 0 10 14 14 30
8 42 32 38 41 -7 l8 -38 11 34 c20 56 38 51 21 -6 -8 -26 -15 -51 -15 -55 0
-5 -6 -8 -14 -8 -8 0 -18 16 -23 38 l-9 37 -13 -37 c-14 -43 -28 -48 -40 -15
-16 43 -23 87 -13 87 6 0 13 -13 17 -30z m223 18 c14 -14 16 -98 3 -98 -6 0
-11 19 -13 43 -2 34 -7 42 -23 42 -16 0 -21 -8 -23 -42 -5 -62 -22 -53 -22 12
l0 55 33 0 c18 0 38 -5 45 -12z m168 -14 c13 -19 15 -32 8 -52 -8 -23 -15 -27
-48 -27 -34 0 -41 4 -49 28 -21 63 54 106 89 51z m114 7 c5 -11 10 -36 10 -55
0 -36 0 -36 -44 -36 -30 0 -46 5 -50 15 -9 25 3 42 35 49 16 3 29 11 29 17 0
7 -11 9 -30 6 -16 -4 -30 -3 -30 2 0 28 65 29 80 2z"/>
<path d="M2282 7963 l3 -78 53 1 c66 2 92 23 92 73 0 20 -4 41 -8 47 -14 21
-51 34 -97 34 l-46 0 3 -77z"/>
<path d="M2676 7919 c-46 -36 -35 -49 44 -49 77 0 89 12 48 50 -28 26 -58 26
-92 -1z"/>
<path d="M3061 7809 c-53 -10 -64 -19 -59 -50 5 -36 51 -48 86 -22 25 19 46
85 25 82 -4 -1 -28 -5 -52 -10z"/>
<path d="M15442 7921 c-17 -47 -15 -51 13 -51 28 0 30 11 11 55 l-12 30 -12
-34z"/>
<path d="M15588 7895 c-16 -35 3 -75 36 -75 25 0 36 16 36 54 0 48 -53 63 -72
21z"/>
<path d="M16520 7925 c0 -36 0 -36 38 -33 34 3 37 6 37 33 0 27 -3 30 -37 33
-38 3 -38 3 -38 -33z"/>
<path d="M15742 7908 c-13 -13 -16 -47 -6 -72 4 -9 18 -16 34 -16 29 0 40 15
40 54 0 26 -17 46 -40 46 -9 0 -21 -5 -28 -12z"/>
<path d="M16768 7895 c-17 -38 4 -77 40 -73 23 2 28 8 30 36 6 59 -47 87 -70
37z"/>
<path d="M16982 7908 c-21 -21 -13 -28 28 -28 38 0 40 2 30 20 -12 22 -40 26
-58 8z"/>
<path d="M18071 7906 c-7 -8 -11 -30 -9 -48 3 -29 6 -33 32 -33 37 0 53 25 40
62 -11 32 -44 42 -63 19z"/>
<path d="M18475 7860 c-38 -7 -40 -34 -2 -38 17 -2 29 2 33 12 10 25 1 32 -31
26z"/>
<path d="M15255 5953 c-22 -8 -49 -14 -60 -12 -55 6 -96 2 -112 -13 -10 -8
-35 -18 -55 -22 -22 -4 -45 -17 -57 -32 -11 -13 -23 -24 -28 -22 -22 5 -99
-30 -137 -63 -41 -37 -132 -172 -160 -240 -25 -60 -29 -139 -11 -208 13 -50
14 -66 4 -72 -9 -5 -8 -11 4 -24 20 -19 22 -32 6 -37 -7 -2 -9 -13 -4 -28 7
-22 8 -22 18 -4 5 10 11 21 13 22 7 10 40 -38 40 -59 0 -83 5 -109 19 -109 8
0 15 5 15 12 0 6 2 9 6 6 3 -3 -6 -34 -20 -69 -15 -34 -26 -66 -26 -71 0 -5
16 -18 35 -29 42 -25 62 -56 46 -72 -18 -18 -12 -44 14 -61 14 -9 25 -25 25
-36 0 -10 11 -30 25 -44 14 -14 25 -36 25 -50 0 -14 10 -34 22 -46 l22 -20
-25 -27 c-14 -16 -45 -54 -69 -86 -36 -48 -45 -56 -53 -42 -8 16 -2 29 57 115
7 10 4 9 -10 -2 -11 -10 -34 -18 -50 -18 -52 -1 -143 -38 -230 -95 -46 -30
-87 -62 -90 -70 -4 -8 -12 -15 -20 -15 -36 0 -118 -101 -112 -138 1 -9 -1 -22
-5 -28 -3 -6 -10 -45 -13 -85 -5 -50 -13 -78 -24 -89 -33 -29 -53 -107 -46
-174 4 -33 10 -86 13 -116 3 -30 9 -59 13 -65 10 -12 1 -63 -11 -71 -5 -3 -9
-15 -9 -28 0 -13 -9 -34 -21 -47 -55 -62 -139 -206 -139 -237 0 -10 -3 -21 -6
-25 -4 -3 -17 -39 -31 -79 -13 -40 -27 -80 -30 -88 -3 -8 -5 -20 -4 -26 0 -6
-10 -22 -23 -37 -16 -18 -20 -29 -13 -36 7 -7 5 -16 -7 -30 -11 -12 -14 -21
-7 -26 8 -4 8 -13 -1 -28 -6 -12 -10 -23 -9 -25 6 -6 -42 -112 -50 -112 -5 0
-9 -5 -9 -11 0 -6 -33 -55 -74 -109 -41 -54 -72 -101 -69 -104 4 -3 27 -6 51
-6 41 0 50 4 89 46 24 26 43 52 43 59 0 7 7 18 15 25 8 7 15 21 15 30 0 10 5
20 10 22 6 2 17 26 24 53 l13 50 6 -45 c4 -25 9 -80 13 -122 4 -54 10 -78 19
-78 7 0 15 -9 18 -21 6 -20 8 -21 249 -15 300 7 1452 9 1958 4 393 -4 410 -6
458 -51 20 -19 33 -21 105 -19 45 2 84 8 88 14 10 16 93 28 149 22 46 -5 50
-4 50 16 0 11 -8 23 -17 27 -23 7 -93 79 -93 94 0 12 60 8 108 -7 l22 -6 -2
833 -3 834 -55 29 c-30 16 -57 33 -58 38 -12 29 -59 69 -91 78 -21 5 -65 23
-97 40 -33 16 -65 30 -72 30 -7 0 -25 20 -40 44 -40 62 -149 169 -200 195 -52
27 -183 44 -268 35 -50 -5 -66 -11 -88 -35 l-27 -29 -37 19 c-20 10 -60 26
-89 35 -36 12 -76 39 -137 93 -47 41 -86 81 -86 87 0 14 19 42 57 83 15 17 44
61 63 99 42 84 51 166 27 252 -12 42 -14 67 -7 97 23 97 2 251 -44 323 -36 57
-136 147 -192 172 -64 30 -194 41 -194 17 0 -11 -8 -15 -27 -13 -16 1 -34 -2
-40 -7 -9 -6 -18 -5 -28 3 -11 9 -18 10 -29 1 -14 -12 -41 -6 -66 15 -12 10
-23 9 -55 -3z m280 -3 c3 -5 1 -10 -4 -10 -6 0 -11 5 -11 10 0 6 2 10 4 10 3
0 8 -4 11 -10z m-731 -763 c23 -17 38 -127 20 -152 -7 -9 -10 -24 -7 -33 4
-12 -2 -10 -20 7 -37 34 -72 162 -50 184 10 11 38 8 57 -6z m823 -36 c13 -19
23 -46 22 -60 0 -24 -1 -23 -12 9 -13 39 -72 84 -99 76 -10 -2 -15 0 -12 5 3
6 22 9 42 7 28 -2 41 -10 59 -37z m-17 -98 c0 -18 -4 -33 -9 -33 -5 0 -9 10
-8 23 0 12 -3 36 -7 52 -7 28 -7 29 8 11 9 -11 16 -35 16 -53z m-192 28 c9
-19 18 -28 28 -24 11 4 14 -4 13 -33 0 -27 -3 -33 -8 -21 -11 30 -31 -2 -38
-61 -3 -28 -8 -51 -12 -50 -19 2 -20 -4 -1 -24 12 -13 34 -23 51 -24 34 -2 49
-12 32 -22 -14 -9 -12 -60 4 -66 15 -6 47 30 39 46 -3 7 -11 21 -18 30 -10 14
-9 20 5 36 17 19 17 20 -3 25 -17 4 -19 10 -14 39 8 38 24 60 31 40 3 -7 17
-19 32 -27 l28 -14 -3 34 c-1 19 2 37 7 40 5 4 6 -2 2 -11 -4 -12 -2 -15 8
-12 8 2 20 20 27 39 8 22 11 25 8 9 -2 -14 -10 -40 -17 -57 -13 -32 -12 -34
21 -63 19 -17 48 -38 64 -48 32 -19 66 -88 66 -134 0 -48 -29 -100 -54 -96
-15 2 -20 9 -18 24 2 14 -5 24 -23 32 -15 7 -25 20 -25 32 0 11 -4 20 -10 20
-14 0 -12 -47 5 -102 12 -42 12 -53 -2 -94 -8 -25 -22 -48 -30 -51 -7 -3 -20
-18 -29 -34 -8 -17 -23 -29 -34 -29 -19 0 -20 8 -21 108 -1 59 -1 111 1 117 6
32 -13 76 -39 90 -26 13 -30 13 -46 -5 -22 -25 -33 -25 -58 -2 -11 9 -17 11
-13 4 7 -11 4 -12 -12 -3 -12 6 -24 16 -27 21 -4 6 -10 8 -14 6 -4 -3 -8 4 -8
15 -1 11 2 17 7 14 5 -3 5 9 -1 27 -11 41 -11 41 1 33 6 -3 10 1 10 10 0 9 7
23 15 31 17 18 20 34 4 34 -5 0 -7 5 -4 10 3 6 1 10 -5 10 -6 0 -2 10 10 22
14 16 17 24 8 29 -9 6 -8 18 2 51 7 24 15 46 17 51 9 16 29 5 41 -22z m381
-258 c37 -46 59 -147 65 -298 4 -77 11 -171 16 -210 11 -71 6 -125 -11 -125
-5 0 -9 10 -9 23 0 19 -18 60 -21 47 -1 -3 -5 -61 -9 -130 -11 -175 -58 -546
-76 -599 -8 -24 -18 -64 -21 -88 -3 -24 -7 -42 -8 -41 -2 2 -16 75 -31 163
-24 136 -28 185 -26 323 1 142 6 188 28 265 5 15 2 16 -21 7 -14 -5 -38 -10
-53 -10 -25 0 -23 3 32 59 51 52 65 74 99 163 39 101 40 106 44 264 l5 160
-31 30 c-17 16 -31 32 -31 37 0 13 37 -11 59 -40z m-615 -325 c13 -24 37 -74
52 -113 19 -48 49 -95 94 -150 37 -44 95 -125 128 -181 l60 -100 -14 -79 c-16
-82 -17 -79 26 -105 11 -6 17 -37 22 -122 3 -62 9 -157 14 -211 5 -71 4 -104
-5 -121 -9 -16 -11 -47 -7 -97 13 -149 13 -151 -20 -199 -31 -46 -113 -108
-173 -130 -28 -10 -36 -10 -50 5 -15 15 -14 18 12 37 16 11 33 32 38 45 5 13
21 28 35 33 35 14 26 22 -28 24 -107 6 -98 1 -98 55 0 65 7 81 37 81 24 0 83
28 83 40 0 3 -18 13 -40 22 l-40 17 0 66 c0 42 -4 64 -10 60 -5 -3 -10 1 -10
9 0 8 -9 93 -20 188 -20 173 -40 376 -44 433 -1 17 -9 44 -18 60 -8 17 -20 75
-26 130 -33 302 -37 345 -27 345 2 0 15 -19 29 -42z m-438 -72 c3 -27 -14 -41
-81 -66 -44 -17 -27 8 20 29 26 11 45 27 45 35 0 20 -13 20 -51 0 -39 -19 -52
-9 -21 17 15 12 35 17 54 15 25 -2 32 -8 34 -30z m819 -16 c3 -5 1 -10 -4 -10
-6 0 -11 5 -11 10 0 6 2 10 4 10 3 0 8 -4 11 -10z m897 -127 c22 -19 23 -36 4
-52 -19 -16 -45 -3 -52 25 -11 43 15 57 48 27z m-2022 -8 c-33 -19 -50 -18
-26 0 11 8 27 15 35 15 10 -1 7 -6 -9 -15z m1157 -227 c-5 -68 -34 -175 -44
-165 -2 3 5 39 16 82 12 43 18 82 15 86 -6 11 5 69 13 69 3 0 3 -33 0 -72z
m797 -331 c8 -21 6 -31 -6 -44 -16 -15 -19 -15 -42 1 -28 18 -33 45 -14 64 20
20 52 10 62 -21z m403 -23 c79 -24 203 -87 203 -104 0 -4 -7 -27 -17 -51 -11
-31 -16 -75 -16 -146 l1 -103 -39 -44 c-40 -46 -98 -161 -139 -278 -13 -38
-26 -68 -30 -68 -11 0 -50 272 -60 420 -22 308 -23 326 -11 363 7 20 15 37 18
37 3 0 43 -12 90 -26z m-2164 -69 c26 -19 18 -50 -12 -50 -32 0 -49 28 -32 49
16 19 21 19 44 1z m1797 -285 c0 -20 -5 -30 -15 -30 -10 0 -15 10 -15 30 0 20
5 30 15 30 10 0 15 -10 15 -30z m-667 -178 c14 -18 20 -79 9 -99 -7 -11 -13 7
-21 61 -6 42 -10 85 -10 94 1 9 4 4 6 -13 3 -16 10 -36 16 -43z m37 -26 c-7
-7 -10 6 -9 40 l1 49 9 -39 c6 -26 6 -43 -1 -50z m-1540 60 c-25 -6 -65 -25
-89 -40 -24 -15 -41 -22 -39 -14 3 7 14 18 25 23 12 6 27 16 34 22 15 12 49
20 89 21 14 0 6 -5 -20 -12z m1330 -296 c0 -36 -3 -41 -34 -54 -23 -9 -42 -28
-55 -53 -18 -35 -51 -74 -51 -60 0 3 -39 -14 -87 -39 -49 -24 -94 -44 -100
-44 -7 0 -13 -4 -13 -8 0 -5 14 -6 31 -4 l32 5 -7 -49 c-8 -55 -19 -69 -60
-78 l-29 -7 7 53 c4 29 9 71 10 93 7 96 19 174 26 170 4 -2 16 2 26 10 10 8
22 15 27 15 13 0 7 -38 -8 -54 -22 -22 -19 -24 33 -15 26 4 53 8 60 8 6 1 12
6 12 11 0 6 -7 10 -16 8 -29 -5 -27 38 3 61 28 23 89 28 96 9 6 -19 57 10 70
39 16 35 27 27 27 -17z m-1209 -303 c-7 -9 -23 -12 -43 -9 -32 5 -32 6 -8 13
44 12 64 11 51 -4z m1155 -68 c16 -6 14 -8 -8 -8 -24 -1 -28 3 -27 27 0 22 2
24 8 8 4 -11 16 -23 27 -27z m-1373 4 c-7 -2 -21 -2 -30 0 -10 3 -4 5 12 5 17
0 24 -2 18 -5z"/>
<path d="M15260 4136 c-14 -39 -10 -45 22 -32 26 11 26 12 8 36 l-19 25 -11
-29z"/>
<path d="M1814 5976 c-38 -17 -74 -61 -74 -92 0 -24 0 -24 125 -24 l125 0 0
28 c0 37 -25 71 -66 88 -41 17 -70 17 -110 0z"/>
<path d="M2863 4150 c-42 -25 -68 -108 -59 -183 13 -92 49 -137 111 -137 79 0
115 52 115 170 0 78 -14 116 -56 149 -33 26 -70 27 -111 1z"/>
<path d="M3830 4105 l0 -258 94 5 c153 8 203 49 228 189 15 79 -1 186 -35 238
-37 55 -85 75 -194 79 l-93 4 0 -257z"/>
<path d="M2124 4171 c-28 -12 -64 -59 -64 -82 0 -17 9 -19 116 -19 l116 0 -7
28 c-15 61 -99 99 -161 73z"/>
<path d="M4738 4164 c-26 -14 -58 -60 -58 -84 0 -6 41 -10 115 -10 113 0 115
0 115 23 -1 67 -103 109 -172 71z"/>
<path d="M6138 4164 c-26 -14 -58 -60 -58 -84 0 -6 41 -10 115 -10 113 0 115
0 115 23 -1 67 -103 109 -172 71z"/>
<path d="M7224 4166 c-84 -37 -99 -242 -24 -318 59 -59 144 -23 170 73 27 97
-7 220 -66 245 -40 17 -41 17 -80 0z"/>
<path d="M7973 4150 c-42 -25 -68 -108 -59 -183 13 -92 49 -137 111 -137 79 0
115 52 115 170 0 78 -14 116 -56 149 -33 26 -70 27 -111 1z"/>
<path d="M8724 4171 c-28 -12 -64 -59 -64 -82 0 -17 9 -19 116 -19 l116 0 -7
28 c-15 61 -99 99 -161 73z"/>
<path d="M640 2830 l0 -70 33 0 c43 0 67 26 67 73 0 45 -22 67 -66 67 l-34 0
0 -70z"/>
<path d="M1933 2903 c-13 -5 -18 -35 -7 -46 11 -11 34 5 34 23 0 22 -10 29
-27 23z"/>
<path d="M1911 2802 c-13 -24 4 -42 36 -42 27 0 29 8 7 38 -19 27 -30 28 -43
4z"/>
<path d="M3428 2835 c-16 -35 3 -75 36 -75 25 0 36 16 36 54 0 48 -53 63 -72
21z"/>
<path d="M4116 2878 c-34 -49 -8 -118 44 -118 18 0 34 8 44 22 34 49 8 118
-44 118 -18 0 -34 -8 -44 -22z"/>
<path d="M824 2843 c-17 -17 -16 -18 20 -21 45 -4 54 2 36 23 -16 20 -35 19
-56 -2z"/>
<path d="M1102 2848 c-21 -21 -13 -28 28 -28 38 0 40 2 30 20 -12 22 -40 26
-58 8z"/>
<path d="M1314 2852 c-18 -12 -26 -50 -14 -72 25 -46 90 -8 74 43 -7 23 -22
37 -39 37 -5 0 -15 -4 -21 -8z"/>
<path d="M1462 2848 c-17 -17 -15 -63 3 -78 35 -29 76 10 59 57 -10 31 -42 41
-62 21z"/>
<path d="M1612 2848 c-21 -21 -13 -28 28 -28 38 0 40 2 30 20 -12 22 -40 26
-58 8z"/>
<path d="M2294 2852 c-18 -12 -26 -50 -14 -72 25 -46 90 -8 74 43 -7 23 -22
37 -39 37 -5 0 -15 -4 -21 -8z"/>
<path d="M2550 2840 c-10 -18 -8 -20 30 -20 41 0 49 7 28 28 -18 18 -46 14
-58 -8z"/>
<path d="M2702 2848 c-7 -7 -12 -24 -12 -38 0 -51 52 -69 72 -25 22 49 -25 98
-60 63z"/>
<path d="M2852 2848 c-21 -21 -13 -28 28 -28 38 0 40 2 30 20 -12 22 -40 26
-58 8z"/>
<path d="M3592 2848 c-21 -21 -13 -28 28 -28 38 0 40 2 30 20 -12 22 -40 26
-58 8z"/>
<path d="M4314 2852 c-18 -12 -24 -41 -14 -68 8 -20 16 -25 38 -22 23 2 28 8
30 36 5 48 -23 75 -54 54z"/>
<path d="M4450 2840 c-10 -18 -8 -20 30 -20 41 0 49 7 28 28 -18 18 -46 14
-58 -8z"/>
<path d="M4914 2852 c-18 -12 -26 -50 -14 -72 25 -46 90 -8 74 43 -7 23 -22
37 -39 37 -5 0 -15 -4 -21 -8z"/>
<path d="M5194 2852 c-18 -12 -26 -50 -14 -72 25 -46 90 -8 74 43 -7 23 -22
37 -39 37 -5 0 -15 -4 -21 -8z"/>
<path d="M5460 2840 c-10 -18 -8 -20 30 -20 41 0 49 7 28 28 -18 18 -46 14
-58 -8z"/>
<path d="M2470 1905 c0 -51 2 -55 23 -55 32 0 47 18 47 57 0 33 -21 53 -54 53
-13 0 -16 -12 -16 -55z"/>
<path d="M3284 1906 c-10 -26 1 -51 22 -54 24 -3 38 20 29 49 -7 22 -43 25
-51 5z"/>
<path d="M1205 1910 c-4 -6 5 -10 20 -10 15 0 24 4 20 10 -3 6 -12 10 -20 10
-8 0 -17 -4 -20 -10z"/>
<path d="M1555 1910 c-4 -6 5 -10 20 -10 15 0 24 4 20 10 -3 6 -12 10 -20 10
-8 0 -17 -4 -20 -10z"/>
<path d="M2607 1900 c-8 -32 2 -50 30 -50 21 0 24 4 21 33 -4 39 -42 52 -51
17z"/>
<path d="M3057 1913 c-12 -11 -8 -61 6 -66 24 -8 37 6 37 39 0 26 -4 34 -18
34 -10 0 -22 -3 -25 -7z"/>
<path d="M3175 1870 c-3 -5 -4 -14 0 -20 8 -13 35 -1 35 16 0 16 -26 19 -35 4z"/>
</g>
</svg>
